<svg width="558" height="542" viewBox="0 0 558 542" fill="none" xmlns="http://www.w3.org/2000/svg">
<path fill-rule="evenodd" clip-rule="evenodd" d="M234.176 336.35L190.512 90.9299L190.504 90.8806C186.541 68.45 201.557 47.0636 224.042 43.1128L465.813 0.632055C488.28 -3.3154 509.707 11.6368 513.693 34.0434L557.357 279.463L557.366 279.513C561.328 301.943 546.313 323.33 523.827 327.28L282.056 369.761C259.59 373.709 238.162 358.756 234.176 336.35ZM412.858 93.9506C415.506 108.911 429.791 118.907 444.765 116.275C459.739 113.644 469.732 99.3834 467.085 84.4227C464.438 69.462 450.152 59.4669 435.178 62.098C420.204 64.7291 410.211 78.99 412.858 93.9506ZM346.579 189.721C349.226 204.682 363.511 214.677 378.486 212.046C393.46 209.415 403.453 195.154 400.806 180.193C398.158 165.232 383.873 155.237 368.899 157.868C353.925 160.499 343.932 174.76 346.579 189.721ZM280.3 285.491C282.947 300.452 297.232 310.447 312.206 307.816C327.181 305.185 337.174 290.924 334.527 275.963C331.879 261.002 317.594 251.007 302.62 253.638C287.645 256.27 277.652 270.531 280.3 285.491Z" fill="black"/>
<path d="M355.442 501.884L312.148 395.152L283.927 400.033C246.434 406.517 210.769 381.458 204.268 344.063L184.058 227.812L101.602 162.021C92.3705 154.655 79.3493 164.33 83.7829 175.26L130.973 291.596C133.372 297.51 130.464 304.239 124.507 306.56L7.30875 352.23C-3.70245 356.521 -1.81261 372.605 9.89489 374.241L134.504 391.648C140.838 392.533 145.227 398.409 144.264 404.715L125.32 528.781C123.54 540.438 138.451 546.848 145.725 537.553L223.144 438.624C227.079 433.595 234.375 432.742 239.37 436.727L337.623 515.124C346.855 522.489 359.876 512.815 355.442 501.884Z" fill="black"/>
</svg>
